<svg width="50" height="50" viewBox="0 0 50 50" fill="none" xmlns="http://www.w3.org/2000/svg">
<circle cx="25" cy="24.9995" r="25" fill="#A54996"/>
<path d="M37.1875 13.7495H12.8125C11.2616 13.7495 10 15.0111 10 16.562V33.437C10 34.9879 11.2616 36.2495 12.8125 36.2495H37.1875C38.7384 36.2495 40 34.9879 40 33.437V16.562C40 15.0111 38.7384 13.7495 37.1875 13.7495ZM37.1875 15.6245C37.3149 15.6245 37.436 15.6509 37.5468 15.6971L25 26.5715L12.4531 15.6971C12.5639 15.651 12.6851 15.6245 12.8125 15.6245H37.1875ZM37.1875 34.3745H12.8125C12.2953 34.3745 11.875 33.9543 11.875 33.437V17.678L24.3857 28.5206C24.5624 28.6735 24.7812 28.7495 25 28.7495C25.2188 28.7495 25.4376 28.6736 25.6143 28.5206L38.125 17.678V33.437C38.1249 33.9543 37.7047 34.3745 37.1875 34.3745Z" fill="white"/>
</svg>
