<svg width="21" height="16" viewBox="0 0 21 16" fill="none" xmlns="http://www.w3.org/2000/svg">
<g clip-path="url(#clip0)">
<path d="M2.20948 7.80312C2.20948 7.80312 3.03389 8.73178 4.76177 9.51784C4.76177 9.51784 3.51036 1.40841 11.6641 0C9.57505 5.87878 14.3213 7.53669 16.0515 4.43081C18.9408 7.38866 16.747 9.96922 16.747 9.96922C17.9317 10.1001 18.9269 9.10766 18.9269 9.10766C18.9358 9.22991 18.9408 9.353 18.9408 9.47697C18.9408 13.0795 15.132 16 10.4335 16C5.73509 16 1.92627 13.0795 1.92627 9.47694C1.92627 8.89825 2.02506 8.33731 2.20948 7.80312Z" fill="#FFAF36"/>
<path d="M18.9269 9.10766C18.9269 9.10766 17.9317 10.1001 16.747 9.96922C16.747 9.96922 18.9407 7.38866 16.0514 4.43081C14.3213 7.53669 9.57503 5.87878 11.664 0C11.2274 0.0754375 10.8178 0.170219 10.4335 0.281812V16C15.1319 16 18.9407 13.0795 18.9407 9.47694C18.9407 9.35297 18.9358 9.22991 18.9269 9.10766Z" fill="#FFCD1D"/>
<path d="M6.70251 13.139C6.70251 14.7189 8.37293 15.9997 10.4335 15.9997C12.494 15.9997 14.1644 14.7189 14.1644 13.139C14.1644 12.2933 13.6859 11.5334 12.9251 11.0097C11.4826 12.5123 9.42695 10.2329 11.029 8.56836C11.029 8.56836 6.70251 8.98408 6.70251 13.139Z" fill="#FB9700"/>
<path d="M14.1644 13.139C14.1644 12.2933 13.6859 11.5334 12.9251 11.0097C11.4826 12.5123 9.42697 10.2329 11.029 8.56836C11.029 8.56836 10.7939 8.59102 10.4335 8.67823V15.9997C12.494 15.9997 14.1644 14.7189 14.1644 13.139Z" fill="#FFA900"/>
</g>
<defs>
<clipPath id="clip0">
<rect width="20.8669" height="16" fill="white"/>
</clipPath>
</defs>
</svg>
