<svg width="317" height="75" viewBox="0 0 317 75" fill="none" xmlns="http://www.w3.org/2000/svg">
<rect x="2.5" y="2.5" width="312" height="70" rx="35" fill="white" stroke="url(#paint0_linear)" stroke-width="5"/>
<path d="M38.6299 32.422H31.6599V50H23.7719V32.422H16.8019V26.2H38.6299V32.422ZM58.4067 45.852H49.3627L47.7647 50H39.6047L50.0087 26.2H57.8967L68.3007 50H60.0047L58.4067 45.852ZM56.1967 40.072L53.8847 34.088L51.5727 40.072H56.1967ZM83.4854 26.2C85.6841 26.2 87.5994 26.5627 89.2314 27.288C90.8634 28.0133 92.1214 29.056 93.0054 30.416C93.8894 31.776 94.3314 33.3627 94.3314 35.176C94.3314 36.9893 93.8894 38.576 93.0054 39.936C92.1214 41.296 90.8634 42.3387 89.2314 43.064C87.5994 43.7893 85.6841 44.152 83.4854 44.152H80.0514V50H72.0274V26.2H83.4854ZM82.9754 37.964C84.0634 37.964 84.8794 37.726 85.4234 37.25C85.9674 36.7513 86.2394 36.06 86.2394 35.176C86.2394 34.292 85.9674 33.612 85.4234 33.136C84.8794 32.6373 84.0634 32.388 82.9754 32.388H80.0514V37.964H82.9754ZM98.2937 26.2H106.182V38.576L114.376 26.2H121.924V50H114.036V37.658L105.876 50H98.2937V26.2ZM158.145 37.998C158.145 41.126 157.103 43.608 155.017 45.444C152.932 47.2573 149.895 48.3 145.905 48.572V51.224H138.561V48.538C134.549 48.198 131.501 47.1327 129.415 45.342C127.353 43.5513 126.321 41.1033 126.321 37.998C126.321 34.8927 127.353 32.456 129.415 30.688C131.501 28.8973 134.549 27.832 138.561 27.492V25.01H145.905V27.492C149.917 27.7867 152.955 28.8407 155.017 30.654C157.103 32.4447 158.145 34.8927 158.145 37.998ZM145.905 42.316C147.492 42.0893 148.637 41.636 149.339 40.956C150.042 40.2533 150.393 39.256 150.393 37.964C150.393 36.6947 150.031 35.72 149.305 35.04C148.603 34.36 147.469 33.9067 145.905 33.68V42.316ZM134.073 37.998C134.073 39.2447 134.436 40.208 135.161 40.888C135.909 41.568 137.043 42.0327 138.561 42.282V33.714C136.952 33.9407 135.796 34.394 135.093 35.074C134.413 35.7313 134.073 36.706 134.073 37.998ZM175.365 33.51C178.334 33.51 180.624 34.1787 182.233 35.516C183.842 36.8307 184.647 38.78 184.647 41.364C184.647 44.152 183.729 46.294 181.893 47.79C180.057 49.2633 177.541 50 174.345 50H162.547V26.2H170.435V33.51H175.365ZM173.801 44.39C174.617 44.39 175.286 44.1407 175.807 43.642C176.328 43.1207 176.589 42.4067 176.589 41.5C176.589 39.9133 175.66 39.12 173.801 39.12H170.435V44.39H173.801ZM186.823 26.2H194.711V50H186.823V26.2ZM233.271 50L233.203 39.154L228.035 47.858H224.499L219.331 39.528V50H212.021V26.2H218.617L226.369 38.882L233.917 26.2H240.513L240.581 50H233.271ZM245.991 26.2H254.015V50H245.991V26.2ZM282.867 26.2V50H276.271L267.227 39.188V50H259.407V26.2H266.003L275.047 37.012V26.2H282.867ZM288.263 26.2H296.287V50H288.263V26.2Z" fill="url(#paint1_linear)"/>
<defs>
<linearGradient id="paint0_linear" x1="40.7196" y1="44" x2="324.453" y2="47.0674" gradientUnits="userSpaceOnUse">
<stop stop-color="#FB338D"/>
<stop offset="1" stop-color="#FF6C3E"/>
</linearGradient>
<linearGradient id="paint1_linear" x1="80.5455" y1="37.5" x2="291.097" y2="37.5" gradientUnits="userSpaceOnUse">
<stop stop-color="#FB338D"/>
<stop offset="1" stop-color="#FF8665"/>
</linearGradient>
</defs>
</svg>
