<svg width="72" height="67" viewBox="0 0 72 67" fill="none" xmlns="http://www.w3.org/2000/svg">
<path d="M32.6784 12.267C32.2626 11.7406 22.4079 -0.612137 14.6283 0.461348C11.8698 0.842203 9.74537 2.78095 8.3143 6.22364C6.33996 10.9731 6.17587 14.8338 7.82667 17.6982C9.88186 21.2643 13.9555 21.8397 14.1279 21.8625C14.1734 21.8685 14.2194 21.8715 14.2653 21.8715H31.8535C32.4339 21.8715 32.9044 21.401 32.9044 20.8206V12.9183C32.9045 12.6821 32.8248 12.4525 32.6784 12.267Z" fill="#FF3D43"/>
<path d="M63.2949 6.22367C61.8639 2.78098 59.7396 0.842235 56.9811 0.461379C49.203 -0.612386 39.3466 11.7407 38.931 12.267C38.7846 12.4526 38.7048 12.6821 38.7048 12.9183V20.8206C38.7048 21.401 39.1754 21.8715 39.7558 21.8715H57.3439C57.3899 21.8715 57.4358 21.8686 57.4814 21.8626C57.6537 21.8397 61.7274 21.2644 63.7826 17.6982C65.4335 14.8337 65.2694 10.9732 63.2949 6.22367Z" fill="#FF3D43"/>
<path d="M31.8529 17.0369H14.2647C14.2188 17.0369 14.1728 17.034 14.1273 17.0279C13.9549 17.0051 9.88127 16.4299 7.82608 12.8636C7.42981 12.176 7.13934 11.4304 6.95213 10.6296C6.42989 13.4112 6.71995 15.7786 7.82608 17.6979C9.88127 21.264 13.9549 21.8394 14.1273 21.8622C14.1728 21.8682 14.2188 21.8712 14.2647 21.8712H31.8529C32.4333 21.8712 32.9038 21.4006 32.9038 20.8202V15.986C32.9038 16.5664 32.4333 17.0369 31.8529 17.0369Z" fill="#D62D2D"/>
<path d="M63.7826 12.8636C61.7274 16.4298 57.6537 17.0051 57.4814 17.0279C57.4358 17.034 57.3899 17.0369 57.3439 17.0369H39.7558C39.1754 17.0369 38.7048 16.5664 38.7048 15.986V20.8202C38.7048 21.4006 39.1754 21.8712 39.7558 21.8712H57.3439C57.3899 21.8712 57.4358 21.8682 57.4814 21.8622C57.6537 21.8394 61.7274 21.264 63.7826 17.6979C64.8887 15.7785 65.1788 13.4112 64.6565 10.6296C64.4694 11.4304 64.1788 12.176 63.7826 12.8636Z" fill="#D62D2D"/>
<path d="M39.7552 11.8674H31.8529C31.2725 11.8674 30.802 12.338 30.802 12.9184V20.8206C30.802 21.401 31.2725 21.8715 31.8529 21.8715H39.7552C40.3356 21.8715 40.8061 21.401 40.8061 20.8206V12.9184C40.8061 12.338 40.3356 11.8674 39.7552 11.8674Z" fill="#D62D2D"/>
<path d="M30.802 17.0371V20.8204C30.802 21.4008 31.2725 21.8714 31.8529 21.8714H39.7552C40.3356 21.8714 40.8061 21.4008 40.8061 20.8204V17.0371H30.802Z" fill="#9E1219"/>
<path d="M65.2488 30.1506H6.36062C5.78023 30.1506 5.30969 30.6212 5.30969 31.2016V61.828C5.30969 64.3463 7.35844 66.3951 9.87673 66.3951H61.7327C64.251 66.3951 66.2998 64.3463 66.2998 61.828V31.2016C66.2998 30.621 65.8292 30.1506 65.2488 30.1506Z" fill="#FFD039"/>
<path d="M65.2488 30.1506H6.36062C5.78023 30.1506 5.30969 30.6212 5.30969 31.2016V35.7169H66.2998V31.2016C66.2998 30.621 65.8292 30.1506 65.2488 30.1506Z" fill="#F4B70C"/>
<path d="M70.5577 19.77H1.05092C0.470534 19.77 0 20.2406 0 20.8209V31.2018C0 31.7822 0.470534 32.2528 1.05092 32.2528H70.5577C71.1381 32.2528 71.6086 31.7822 71.6086 31.2018V20.8209C71.6086 20.2406 71.1381 19.77 70.5577 19.77Z" fill="#FFDF65"/>
<path d="M0 27.4185V31.2018C0 31.7822 0.470534 32.2527 1.05092 32.2527H70.5577C71.1381 32.2527 71.6086 31.7822 71.6086 31.2018V27.4185H0Z" fill="#FFCD2C"/>
<path d="M41.0002 19.77H30.6077C30.0273 19.77 29.5568 20.2406 29.5568 20.8209V65.3444C29.5568 65.9248 30.0273 66.3954 30.6077 66.3954H41.0002C41.5806 66.3954 42.0511 65.9248 42.0511 65.3444V20.8209C42.0511 20.2406 41.5807 19.77 41.0002 19.77Z" fill="#FF3D43"/>
<path d="M41.0004 19.77H37.217V66.3954H41.0004C41.5808 66.3954 42.0513 65.9248 42.0513 65.3444V20.8209C42.0513 20.2406 41.5809 19.77 41.0004 19.77Z" fill="#D62D2D"/>
</svg>
