<svg width="288" height="141" viewBox="0 0 288 141" fill="none" xmlns="http://www.w3.org/2000/svg">
<rect y="-0.000488281" width="86" height="141" rx="23" fill="url(#paint0_linear)"/>
<rect x="101" y="-0.000488281" width="86" height="141" rx="23" fill="url(#paint1_linear)"/>
<rect x="202" y="-0.000488281" width="86" height="141" rx="23" fill="url(#paint2_linear)"/>
<path d="M49.2448 62.1995V107H38.8767V70.5195H29.9168V62.1995H49.2448Z" fill="#FFF5F5"/>
<path d="M160.093 98.5515V107H126.237V100.28L143.517 83.9595C145.352 82.2102 146.589 80.7168 147.229 79.4795C147.869 78.1995 148.189 76.9408 148.189 75.7035C148.189 73.9115 147.57 72.5462 146.333 71.6075C145.138 70.6262 143.368 70.1355 141.021 70.1355C139.058 70.1355 137.288 70.5195 135.709 71.2875C134.13 72.0128 132.808 73.1222 131.741 74.6155L124.189 69.7515C125.938 67.1488 128.349 65.1222 131.421 63.6715C134.493 62.1782 138.013 61.4315 141.981 61.4315C145.309 61.4315 148.21 61.9862 150.685 63.0955C153.202 64.1622 155.144 65.6982 156.509 67.7035C157.917 69.6662 158.621 71.9915 158.621 74.6795C158.621 77.1115 158.109 79.3942 157.085 81.5275C156.061 83.6608 154.077 86.0928 151.133 88.8235L140.829 98.5515H160.093Z" fill="#FFF5F5"/>
<path d="M249.487 80.4395C253.412 81.0795 256.42 82.5515 258.511 84.8555C260.601 87.1168 261.647 89.9328 261.647 93.3035C261.647 95.9062 260.964 98.3168 259.599 100.536C258.233 102.712 256.143 104.461 253.327 105.784C250.553 107.106 247.14 107.768 243.087 107.768C239.929 107.768 236.815 107.362 233.743 106.552C230.713 105.698 228.132 104.504 225.998 102.968L230.031 95.0315C231.737 96.3115 233.7 97.3142 235.919 98.0395C238.18 98.7222 240.484 99.0635 242.831 99.0635C245.433 99.0635 247.481 98.5728 248.975 97.5915C250.468 96.5675 251.215 95.1382 251.215 93.3035C251.215 89.6342 248.42 87.7995 242.831 87.7995H238.095V80.9515L247.311 70.5195H228.239V62.1995H259.599V68.9195L249.487 80.4395Z" fill="#FFF5F5"/>
<defs>
<linearGradient id="paint0_linear" x1="43" y1="-0.000488281" x2="43" y2="141" gradientUnits="userSpaceOnUse">
<stop stop-color="#EC5569"/>
<stop offset="1" stop-color="#E63950"/>
</linearGradient>
<linearGradient id="paint1_linear" x1="144" y1="-0.000488281" x2="144" y2="141" gradientUnits="userSpaceOnUse">
<stop stop-color="#EC5569"/>
<stop offset="1" stop-color="#E63950"/>
</linearGradient>
<linearGradient id="paint2_linear" x1="245" y1="-0.000488281" x2="245" y2="141" gradientUnits="userSpaceOnUse">
<stop stop-color="#EC5569"/>
<stop offset="1" stop-color="#E63950"/>
</linearGradient>
</defs>
</svg>
