<svg width="169" height="169" viewBox="0 0 169 169" fill="none" xmlns="http://www.w3.org/2000/svg">
<g clip-path="url(#clip0)">
<path d="M136.128 -0.000488281H32.8722C15.689 -0.000488281 1.76001 13.9292 1.76001 31.1118V98.8347C1.76001 116.018 15.6897 129.947 32.8722 129.947H47.6908C48.3959 129.947 48.9672 130.518 48.9672 131.223V164.63C48.9672 168.579 53.7986 170.494 56.5042 167.617L91.5546 130.349C91.7959 130.092 92.1326 129.947 92.4848 129.947H136.128C153.311 129.947 167.24 116.017 167.24 98.8347V31.1118C167.24 13.9292 153.31 -0.000488281 136.128 -0.000488281Z" fill="#EC5569"/>
<path d="M62.0565 118.336C62.0565 117.594 61.5033 116.992 60.8207 116.992H46.4748C29.8401 116.992 16.3551 102.323 16.3551 84.2292V12.9134C16.3551 9.85155 16.7426 6.88843 17.4645 4.07715C8.08333 9.43565 1.76001 19.5351 1.76001 31.1119V98.8348C1.76001 116.017 15.6897 129.947 32.8722 129.947H47.6908C48.3959 129.947 48.9672 130.519 48.9672 131.223V164.63C48.9672 168.579 53.7986 170.495 56.5042 167.617L62.0562 161.714V118.336H62.0565Z" fill="#E63950"/>
<path d="M119.458 40.3765C111.559 32.4774 98.752 32.4774 90.8526 40.3765L86.3906 44.8385C85.3268 45.9023 83.6014 45.9023 82.5376 44.8385L78.1469 40.4478C70.2478 32.5487 57.4407 32.5487 49.5413 40.4478C41.6422 48.3469 41.6422 61.1539 49.5413 69.0534L82.5402 102.052C83.6041 103.116 85.3294 103.116 86.3932 102.052L119.458 68.9821C127.357 61.0827 127.357 48.2759 119.458 40.3765Z" fill="#EC5569"/>
<path d="M119.458 40.3765C111.559 32.4774 98.752 32.4774 90.8526 40.3765L86.3906 44.8385C85.3268 45.9023 83.6014 45.9023 82.5376 44.8385L78.1469 40.4478C70.2478 32.5487 57.4407 32.5487 49.5413 40.4478C41.6422 48.3469 41.6422 61.1539 49.5413 69.0534L82.5402 102.052C83.6041 103.116 85.3294 103.116 86.3932 102.052L119.458 68.9821C127.357 61.0827 127.357 48.2759 119.458 40.3765Z" fill="#FFF5F5"/>
<path d="M60.1222 69.0534C52.2231 61.1543 52.2231 48.3473 60.1222 40.4478C62.7133 37.8567 65.8339 36.1212 69.1343 35.2303C62.3723 33.4043 54.8492 35.1398 49.5415 40.4478C41.6424 48.3469 41.6424 61.154 49.5415 69.0534L82.5405 102.052C83.6043 103.116 85.3296 103.116 86.3935 102.052L89.757 98.6882L60.1222 69.0534Z" fill="#DCE6EB"/>
</g>
<defs>
<clipPath id="clip0">
<rect y="-0.000488281" width="169" height="169" fill="white"/>
</clipPath>
</defs>
</svg>
