<svg width="192" height="192" viewBox="0 0 192 192" fill="none" xmlns="http://www.w3.org/2000/svg">
<path d="M181.351 165.517H10.6494C4.7669 165.517 0 160.75 0 154.868V37.1318C0 31.2493 4.7669 26.4824 10.6494 26.4824H181.351C187.233 26.4824 192 31.2493 192 37.1318V154.868C192 160.75 187.233 165.517 181.351 165.517Z" fill="#EC5569"/>
<path d="M152.276 66.2068C152.276 77.1773 143.384 86.0689 132.414 86.0689C121.44 86.0689 112.552 77.1773 112.552 66.2068C112.552 55.2363 121.44 46.3447 132.414 46.3447C143.384 46.3447 152.276 55.2363 152.276 66.2068Z" fill="#DCE6EB"/>
<path d="M175.448 66.2068C175.448 77.1773 166.557 86.0689 155.586 86.0689C144.616 86.0689 135.724 77.1773 135.724 66.2068C135.724 55.2363 144.616 46.3447 155.586 46.3447C166.557 46.3447 175.448 55.2363 175.448 66.2068Z" fill="#FFF5F5"/>
<path d="M46.3449 49.6548H16.5518C14.7212 49.6548 13.2415 51.1378 13.2415 52.9651C13.2415 54.7924 14.7212 56.2755 16.5518 56.2755H46.3449C48.1755 56.2755 49.6553 54.7924 49.6553 52.9651C49.6553 51.1378 48.1755 49.6548 46.3449 49.6548Z" fill="#FFF5F5"/>
<path d="M92.6897 52.9651C92.6897 51.1378 91.2099 49.6548 89.3793 49.6548H59.5862C57.7556 49.6548 56.2759 51.1378 56.2759 52.9651C56.2759 54.7924 57.7556 56.2755 59.5862 56.2755H89.3793C91.2099 56.2755 92.6897 54.7924 92.6897 52.9651Z" fill="#FFF5F5"/>
<path d="M19.8621 66.2065H16.5518C14.7212 66.2065 13.2415 67.6896 13.2415 69.5169C13.2415 71.3442 14.7212 72.8272 16.5518 72.8272H19.8621C21.6928 72.8272 23.1725 71.3442 23.1725 69.5169C23.1725 67.6896 21.6928 66.2065 19.8621 66.2065Z" fill="#FFF5F5"/>
<path d="M39.7242 66.2065H33.1036C31.2729 66.2065 29.7932 67.6896 29.7932 69.5169C29.7932 71.3442 31.2729 72.8272 33.1036 72.8272H39.7242C41.5549 72.8272 43.0346 71.3442 43.0346 69.5169C43.0346 67.6896 41.5549 66.2065 39.7242 66.2065Z" fill="#FFF5F5"/>
<path d="M56.276 66.2065H52.9656C51.135 66.2065 49.6553 67.6896 49.6553 69.5169C49.6553 71.3442 51.135 72.8272 52.9656 72.8272H56.276C58.1066 72.8272 59.5863 71.3442 59.5863 69.5169C59.5863 67.6896 58.1066 66.2065 56.276 66.2065Z" fill="#FFF5F5"/>
<path d="M76.1378 66.2065H69.5171C67.6865 66.2065 66.2068 67.6896 66.2068 69.5169C66.2068 71.3442 67.6865 72.8272 69.5171 72.8272H76.1378C77.9685 72.8272 79.4482 71.3442 79.4482 69.5169C79.4482 67.6896 77.9685 66.2065 76.1378 66.2065Z" fill="#FFF5F5"/>
<path d="M87.0619 67.1665C86.4297 67.7954 86.0688 68.623 86.0688 69.5168C86.0688 70.4106 86.4297 71.2382 87.0289 71.8672C87.6545 72.463 88.5185 72.8272 89.3792 72.8272C90.2399 72.8272 91.0973 72.463 91.7295 71.8672C92.3254 71.2382 92.6895 70.3775 92.6895 69.5168C92.6895 68.6561 92.3254 67.7954 91.7295 67.1996C90.5047 65.9416 88.2537 65.9417 87.0619 67.1665Z" fill="#FFF5F5"/>
<path d="M46.3449 122.482H16.5518V142.344H46.3449V122.482Z" fill="#FFF5F5"/>
<path d="M89.3793 122.482H59.5862V142.344H89.3793V122.482Z" fill="#FFF5F5"/>
<path d="M132.414 122.482H102.621V142.344H132.414V122.482Z" fill="#FFF5F5"/>
<path d="M175.448 122.482H145.655V142.344H175.448V122.482Z" fill="#FFF5F5"/>
</svg>
