<svg width="23" height="21" viewBox="0 0 23 21" fill="none" xmlns="http://www.w3.org/2000/svg">
<path d="M10.3977 3.77738C10.2654 3.60988 7.12979 -0.320537 4.65444 0.0210269C3.77675 0.142208 3.1008 0.759083 2.64545 1.85449C2.01725 3.36568 1.96504 4.59408 2.4903 5.50549C3.14422 6.64017 4.44039 6.82323 4.49523 6.8305C4.50972 6.83242 4.52434 6.83335 4.53897 6.83335H10.1352C10.3199 6.83335 10.4696 6.68364 10.4696 6.49897V3.98461C10.4696 3.90944 10.4443 3.83641 10.3977 3.77738Z" fill="#FF3D43"/>
<path d="M20.1393 1.8545C19.684 0.759093 19.0081 0.142218 18.1304 0.0210369C15.6555 -0.320616 12.5194 3.60993 12.3871 3.77739C12.3406 3.83642 12.3152 3.90945 12.3152 3.98462V6.49898C12.3152 6.68365 12.4649 6.83336 12.6496 6.83336H18.2458C18.2604 6.83336 18.2751 6.83243 18.2895 6.83051C18.3444 6.82324 19.6405 6.64018 20.2945 5.5055C20.8198 4.59405 20.7676 3.36569 20.1393 1.8545Z" fill="#FF3D43"/>
<path d="M10.1351 5.29503H4.53891C4.52428 5.29503 4.50966 5.29409 4.49517 5.29218C4.44033 5.28491 3.14416 5.10189 2.49024 3.96716C2.36415 3.74838 2.27173 3.51115 2.21216 3.25635C2.046 4.1414 2.13829 4.89466 2.49024 5.50534C3.14416 6.64002 4.44033 6.82308 4.49517 6.83035C4.50966 6.83227 4.52428 6.8332 4.53891 6.8332H10.1351C10.3198 6.8332 10.4695 6.68349 10.4695 6.49882V4.96064C10.4695 5.14531 10.3198 5.29503 10.1351 5.29503Z" fill="#D62D2D"/>
<path d="M20.2945 3.96716C19.6405 5.10184 18.3444 5.28491 18.2895 5.29218C18.2751 5.29409 18.2604 5.29503 18.2458 5.29503H12.6496C12.4649 5.29503 12.3152 5.14531 12.3152 4.96064V6.49882C12.3152 6.68349 12.4649 6.8332 12.6496 6.8332H18.2458C18.2604 6.8332 18.2751 6.83227 18.2895 6.83035C18.3444 6.82308 19.6405 6.64002 20.2945 5.50534C20.6464 4.89461 20.7387 4.1414 20.5725 3.25635C20.513 3.51115 20.4206 3.74838 20.2945 3.96716Z" fill="#D62D2D"/>
<path d="M12.6495 3.65039H10.1352C9.9505 3.65039 9.80078 3.80011 9.80078 3.98478V6.49913C9.80078 6.6838 9.9505 6.83352 10.1352 6.83352H12.6495C12.8342 6.83352 12.9839 6.6838 12.9839 6.49913V3.98478C12.9839 3.80011 12.8342 3.65039 12.6495 3.65039Z" fill="#D62D2D"/>
<path d="M9.80078 5.29492V6.49871C9.80078 6.68338 9.9505 6.8331 10.1352 6.8331H12.6495C12.8342 6.8331 12.9839 6.68338 12.9839 6.49871V5.29492H9.80078Z" fill="#9E1219"/>
<path d="M20.761 9.46777H2.02384C1.83917 9.46777 1.68945 9.61749 1.68945 9.80216V19.547C1.68945 20.3482 2.34133 21.0001 3.1426 21.0001H19.6423C20.4435 21.0001 21.0954 20.3482 21.0954 19.547V9.80216C21.0954 9.61744 20.9457 9.46777 20.761 9.46777Z" fill="#FFD039"/>
<path d="M20.761 9.46777H2.02384C1.83917 9.46777 1.68945 9.61749 1.68945 9.80216V11.2389H21.0954V9.80216C21.0954 9.61744 20.9457 9.46777 20.761 9.46777Z" fill="#F4B70C"/>
<path d="M22.4502 6.16455H0.334386C0.149716 6.16455 0 6.31427 0 6.49894V9.80195C0 9.98662 0.149716 10.1363 0.334386 10.1363H22.4502C22.6349 10.1363 22.7846 9.98662 22.7846 9.80195V6.49894C22.7846 6.31427 22.6349 6.16455 22.4502 6.16455Z" fill="#FFDF65"/>
<path d="M0 8.59814V9.80193C0 9.9866 0.149716 10.1363 0.334386 10.1363H22.4502C22.6349 10.1363 22.7846 9.9866 22.7846 9.80193V8.59814H0Z" fill="#FFCD2C"/>
<path d="M13.0456 6.16455H9.73893C9.55426 6.16455 9.40454 6.31427 9.40454 6.49894V20.6655C9.40454 20.8502 9.55426 20.9999 9.73893 20.9999H13.0456C13.2303 20.9999 13.38 20.8502 13.38 20.6655V6.49894C13.38 6.31427 13.2304 6.16455 13.0456 6.16455Z" fill="#FF3D43"/>
<path d="M13.0456 6.16455H11.8418V20.9999H13.0456C13.2303 20.9999 13.38 20.8502 13.38 20.6655V6.49894C13.38 6.31427 13.2303 6.16455 13.0456 6.16455Z" fill="#D62D2D"/>
</svg>
