<svg width="1548" height="1135" viewBox="0 0 1548 1135" fill="none" xmlns="http://www.w3.org/2000/svg">
<path d="M663.739 983.77C665.17 983.77 666.33 982.547 666.33 981.038C666.33 979.529 665.17 978.306 663.739 978.306C662.308 978.306 661.148 979.529 661.148 981.038C661.148 982.547 662.308 983.77 663.739 983.77Z" fill="url(#paint0_linear)"/>
<path d="M662.444 1068.18C663.159 1068.18 663.739 1067.57 663.739 1066.82C663.739 1066.06 663.159 1065.45 662.444 1065.45C661.728 1065.45 661.148 1066.06 661.148 1066.82C661.148 1067.57 661.728 1068.18 662.444 1068.18Z" fill="url(#paint1_linear)"/>
<path d="M690.423 871.766C690.423 875.318 693.014 878.05 696.381 878.05C699.749 878.05 702.34 875.318 702.34 871.766C702.34 868.215 699.749 865.483 696.381 865.483C693.273 865.483 690.423 868.215 690.423 871.766Z" fill="url(#paint2_linear)"/>
<path d="M561.924 978.307C566.216 978.307 569.696 974.637 569.696 970.112C569.696 965.586 566.216 961.917 561.924 961.917C557.632 961.917 554.152 965.586 554.152 970.112C554.152 974.637 557.632 978.307 561.924 978.307Z" fill="url(#paint3_linear)"/>
<path d="M372.802 958.638C372.802 967.926 380.056 975.302 388.606 975.302C397.414 975.302 404.409 967.653 404.409 958.638C404.409 949.623 397.155 941.974 388.606 941.974C380.056 941.974 372.802 949.35 372.802 958.638Z" fill="url(#paint4_linear)"/>
<path d="M672.806 1134.29C677.385 1134.29 681.097 1130.38 681.097 1125.55C681.097 1120.72 677.385 1116.81 672.806 1116.81C668.228 1116.81 664.516 1120.72 664.516 1125.55C664.516 1130.38 668.228 1134.29 672.806 1134.29Z" fill="url(#paint5_linear)"/>
<path d="M715.035 511.44C715.035 513.899 717.107 516.084 719.439 516.084C721.77 516.084 723.843 513.899 723.843 511.44C723.843 508.981 721.77 506.796 719.439 506.796C716.848 506.796 715.035 508.708 715.035 511.44Z" fill="url(#paint6_linear)"/>
<path d="M668.661 460.901C670.95 460.901 672.806 458.944 672.806 456.53C672.806 454.116 670.95 452.159 668.661 452.159C666.372 452.159 664.516 454.116 664.516 456.53C664.516 458.944 666.372 460.901 668.661 460.901Z" fill="url(#paint7_linear)"/>
<path d="M565.81 345.619C567.956 345.619 569.696 343.785 569.696 341.522C569.696 339.258 567.956 337.424 565.81 337.424C563.664 337.424 561.924 339.258 561.924 341.522C561.924 343.785 563.664 345.619 565.81 345.619Z" fill="url(#paint8_linear)"/>
<path d="M457.26 360.098C457.26 361.737 458.296 362.83 459.85 362.83C461.405 362.83 462.441 361.737 462.441 360.098C462.441 358.459 461.405 357.366 459.85 357.366C458.555 357.366 457.26 358.459 457.26 360.098Z" fill="url(#paint9_linear)"/>
<path d="M565.81 400.256C567.956 400.256 569.696 398.421 569.696 396.158C569.696 393.895 567.956 392.061 565.81 392.061C563.664 392.061 561.924 393.895 561.924 396.158C561.924 398.421 563.664 400.256 565.81 400.256Z" fill="url(#paint10_linear)"/>
<path d="M286.791 352.176C286.791 358.186 291.454 362.83 296.895 362.83C302.594 362.83 306.998 357.912 306.998 352.176C306.998 346.166 302.335 341.521 296.895 341.521C291.195 341.521 286.791 346.166 286.791 352.176Z" fill="url(#paint11_linear)"/>
<path d="M333.424 471.282C336.142 471.282 338.346 468.959 338.346 466.092C338.346 463.226 336.142 460.902 333.424 460.902C330.705 460.902 328.501 463.226 328.501 466.092C328.501 468.959 330.705 471.282 333.424 471.282Z" fill="url(#paint12_linear)"/>
<path d="M220.21 515.264C220.21 519.909 223.837 523.733 228.241 523.733C232.645 523.733 236.272 519.909 236.272 515.264C236.272 510.62 232.645 506.796 228.241 506.796C223.837 506.796 220.21 510.62 220.21 515.264Z" fill="url(#paint13_linear)"/>
<path d="M410.109 256.016C413.113 256.016 415.549 253.447 415.549 250.279C415.549 247.11 413.113 244.542 410.109 244.542C407.104 244.542 404.668 247.11 404.668 250.279C404.668 253.447 407.104 256.016 410.109 256.016Z" fill="url(#paint14_linear)"/>
<path d="M1158.84 184.613C1158.84 187.345 1160.91 189.804 1163.76 189.804C1166.35 189.804 1168.68 187.618 1168.68 184.613C1168.68 181.881 1166.61 179.423 1163.76 179.423C1161.17 179.423 1158.84 181.608 1158.84 184.613Z" fill="url(#paint15_linear)"/>
<path d="M1476.27 259.332C1476.27 261.244 1477.57 262.61 1479.38 262.61C1481.2 262.61 1482.49 261.244 1482.49 259.332C1482.49 257.42 1481.2 256.054 1479.38 256.054C1477.83 256.054 1476.27 257.42 1476.27 259.332Z" fill="url(#paint16_linear)"/>
<path d="M828.767 415.554C828.767 417.467 830.321 419.106 832.135 419.106C833.948 419.106 835.502 417.467 835.502 415.554C835.502 413.642 833.948 412.003 832.135 412.003C830.062 412.003 828.767 413.642 828.767 415.554Z" fill="url(#paint17_linear)"/>
<path d="M719.439 271.314C719.439 272.68 720.475 273.773 721.771 273.773C723.066 273.773 724.102 272.68 724.102 271.314C724.102 269.948 723.066 268.855 721.771 268.855C720.475 269.128 719.439 269.948 719.439 271.314Z" fill="url(#paint18_linear)"/>
<path d="M901.636 184.951C901.636 190.142 905.522 194.513 910.703 194.513C915.626 194.513 919.771 190.415 919.771 184.951C919.771 179.761 915.885 175.39 910.703 175.39C905.781 175.663 901.636 179.761 901.636 184.951Z" fill="url(#paint19_linear)"/>
<path d="M1102.35 465.819C1103.63 465.819 1104.68 464.718 1104.68 463.36C1104.68 462.003 1103.63 460.902 1102.35 460.902C1101.06 460.902 1100.01 462.003 1100.01 463.36C1100.01 464.718 1101.06 465.819 1102.35 465.819Z" fill="url(#paint20_linear)"/>
<path d="M1533.64 426.772C1533.64 430.87 1536.75 434.148 1540.64 434.148C1544.52 434.148 1547.63 430.87 1547.63 426.772C1547.63 422.675 1544.52 419.396 1540.64 419.396C1536.75 419.396 1533.64 422.948 1533.64 426.772Z" fill="url(#paint21_linear)"/>
<path d="M1290.15 528.967C1292.44 528.967 1294.29 527.01 1294.29 524.596C1294.29 522.182 1292.44 520.225 1290.15 520.225C1287.86 520.225 1286 522.182 1286 524.596C1286 527.01 1287.86 528.967 1290.15 528.967Z" fill="url(#paint22_linear)"/>
<path d="M1488.7 702.414C1488.7 705.692 1491.04 708.151 1494.14 708.151C1497.25 708.151 1499.58 705.692 1499.58 702.414C1499.58 699.135 1497.25 696.677 1494.14 696.677C1491.29 696.677 1488.7 699.135 1488.7 702.414Z" fill="url(#paint23_linear)"/>
<path d="M1255.97 649.123C1257.69 649.123 1259.08 647.655 1259.08 645.845C1259.08 644.034 1257.69 642.567 1255.97 642.567C1254.26 642.567 1252.87 644.034 1252.87 645.845C1252.87 647.655 1254.26 649.123 1255.97 649.123Z" fill="url(#paint24_linear)"/>
<path d="M1104.68 810.3C1104.68 814.398 1107.79 817.949 1111.93 817.949C1115.82 817.949 1119.18 814.671 1119.18 810.3C1119.18 806.202 1116.08 802.651 1111.93 802.651C1108.04 802.651 1104.68 806.202 1104.68 810.3Z" fill="url(#paint25_linear)"/>
<path d="M1061.67 885.699C1061.67 889.797 1064.78 893.075 1068.67 893.075C1072.55 893.075 1075.66 889.797 1075.66 885.699C1075.66 881.601 1072.55 878.323 1068.67 878.323C1064.78 878.323 1061.67 881.601 1061.67 885.699Z" fill="url(#paint26_linear)"/>
<path d="M1118.93 947.164C1118.93 950.169 1121.26 952.627 1124.11 952.627C1126.96 952.627 1129.29 950.169 1129.29 947.164C1129.29 944.159 1126.96 941.7 1124.11 941.7C1121.26 941.974 1118.93 944.432 1118.93 947.164Z" fill="url(#paint27_linear)"/>
<path d="M985.763 972.842C985.763 974.208 984.727 975.574 983.173 975.574C981.877 975.574 980.582 974.481 980.582 972.842C980.582 971.476 981.618 970.11 983.173 970.11C984.727 970.11 985.763 971.476 985.763 972.842Z" fill="url(#paint28_linear)"/>
<path d="M896.384 877.776C896.384 881.055 898.975 883.786 902.084 883.786C905.193 883.786 907.783 881.055 907.783 877.776C907.783 874.498 905.193 871.766 902.084 871.766C898.975 871.766 896.384 874.498 896.384 877.776Z" fill="url(#paint29_linear)"/>
<path d="M801.564 810.3C801.564 814.398 804.673 817.949 808.818 817.949C812.704 817.949 816.072 814.671 816.072 810.3C816.072 806.202 812.964 802.651 808.818 802.651C804.932 802.651 801.564 806.202 801.564 810.3Z" fill="url(#paint30_linear)"/>
<path d="M544.307 757.031C544.307 759.489 546.121 761.402 548.452 761.402C550.784 761.402 552.597 759.489 552.597 757.031C552.597 754.572 550.784 752.66 548.452 752.66C546.121 752.66 544.307 754.572 544.307 757.031Z" fill="url(#paint31_linear)"/>
<path d="M495.343 707.033C495.343 707.578 495.861 708.123 496.379 708.123C496.897 708.123 497.415 707.578 497.415 707.033C497.415 706.489 496.897 705.944 496.379 705.944C495.861 705.944 495.343 706.489 495.343 707.033Z" fill="url(#paint32_linear)"/>
<path d="M911.928 595.034C911.928 598.585 914.519 601.316 917.887 601.316C921.255 601.316 923.846 598.585 923.846 595.034C923.846 591.482 921.255 588.751 917.887 588.751C914.778 588.751 911.928 591.482 911.928 595.034Z" fill="url(#paint33_linear)"/>
<path d="M783.429 599.951C784.717 599.951 785.761 598.85 785.761 597.492C785.761 596.134 784.717 595.034 783.429 595.034C782.142 595.034 781.098 596.134 781.098 597.492C781.098 598.85 782.142 599.951 783.429 599.951Z" fill="url(#paint34_linear)"/>
<path d="M537.053 519.909C537.053 522.094 538.608 523.733 540.68 523.733C542.753 523.733 544.307 522.094 544.307 519.909C544.307 517.723 542.753 516.084 540.68 516.084C538.867 516.084 537.053 517.723 537.053 519.909Z" fill="url(#paint35_linear)"/>
<path d="M433.166 542.037C433.166 547.501 437.57 552.145 442.752 552.145C447.933 552.145 452.337 547.501 452.337 542.037C452.337 536.573 447.933 531.929 442.752 531.929C437.57 531.929 433.166 536.573 433.166 542.037Z" fill="url(#paint36_linear)"/>
<path d="M388.865 606.78C388.865 611.97 392.751 616.068 397.673 616.068C402.596 616.068 406.482 611.97 406.482 606.78C406.482 601.59 402.596 597.492 397.673 597.492C392.751 597.492 388.865 601.59 388.865 606.78Z" fill="url(#paint37_linear)"/>
<defs>
<linearGradient id="paint0_linear" x1="224.049" y1="351.093" x2="872.617" y2="1186.95" gradientUnits="userSpaceOnUse">
<stop stop-color="#E73C8E"/>
<stop offset="0.1105" stop-color="#E33D8E"/>
<stop offset="0.2696" stop-color="#D84290"/>
<stop offset="0.4582" stop-color="#C44793"/>
<stop offset="0.6692" stop-color="#A74D97"/>
<stop offset="0.8962" stop-color="#7B509B"/>
<stop offset="1" stop-color="#62519D"/>
</linearGradient>
<linearGradient id="paint1_linear" x1="184.433" y1="382.311" x2="832.419" y2="1218.04" gradientUnits="userSpaceOnUse">
<stop stop-color="#E73C8E"/>
<stop offset="0.1105" stop-color="#E33D8E"/>
<stop offset="0.2696" stop-color="#D84290"/>
<stop offset="0.4582" stop-color="#C44793"/>
<stop offset="0.6692" stop-color="#A74D97"/>
<stop offset="0.8962" stop-color="#7B509B"/>
<stop offset="1" stop-color="#62519D"/>
</linearGradient>
<linearGradient id="paint2_linear" x1="294.805" y1="296.166" x2="943.409" y2="1132.04" gradientUnits="userSpaceOnUse">
<stop stop-color="#E73C8E"/>
<stop offset="0.1105" stop-color="#E33D8E"/>
<stop offset="0.2696" stop-color="#D84290"/>
<stop offset="0.4582" stop-color="#C44793"/>
<stop offset="0.6692" stop-color="#A74D97"/>
<stop offset="0.8962" stop-color="#7B509B"/>
<stop offset="1" stop-color="#62519D"/>
</linearGradient>
<linearGradient id="paint3_linear" x1="162.889" y1="398.579" x2="811.416" y2="1234.43" gradientUnits="userSpaceOnUse">
<stop stop-color="#E73C8E"/>
<stop offset="0.1105" stop-color="#E33D8E"/>
<stop offset="0.2696" stop-color="#D84290"/>
<stop offset="0.4582" stop-color="#C44793"/>
<stop offset="0.6692" stop-color="#A74D97"/>
<stop offset="0.8962" stop-color="#7B509B"/>
<stop offset="1" stop-color="#62519D"/>
</linearGradient>
<linearGradient id="paint4_linear" x1="55.8481" y1="481.61" x2="704.405" y2="1317.47" gradientUnits="userSpaceOnUse">
<stop stop-color="#E73C8E"/>
<stop offset="0.1105" stop-color="#E33D8E"/>
<stop offset="0.2696" stop-color="#D84290"/>
<stop offset="0.4582" stop-color="#C44793"/>
<stop offset="0.6692" stop-color="#A74D97"/>
<stop offset="0.8962" stop-color="#7B509B"/>
<stop offset="1" stop-color="#62519D"/>
</linearGradient>
<linearGradient id="paint5_linear" x1="164.615" y1="397.232" x2="813.157" y2="1233.09" gradientUnits="userSpaceOnUse">
<stop stop-color="#E73C8E"/>
<stop offset="0.1105" stop-color="#E33D8E"/>
<stop offset="0.2696" stop-color="#D84290"/>
<stop offset="0.4582" stop-color="#C44793"/>
<stop offset="0.6692" stop-color="#A74D97"/>
<stop offset="0.8962" stop-color="#7B509B"/>
<stop offset="1" stop-color="#62519D"/>
</linearGradient>
<linearGradient id="paint6_linear" x1="472.86" y1="158.029" x2="1121.45" y2="993.886" gradientUnits="userSpaceOnUse">
<stop stop-color="#E73C8E"/>
<stop offset="0.1105" stop-color="#E33D8E"/>
<stop offset="0.2696" stop-color="#D84290"/>
<stop offset="0.4582" stop-color="#C44793"/>
<stop offset="0.6692" stop-color="#A74D97"/>
<stop offset="0.8962" stop-color="#7B509B"/>
<stop offset="1" stop-color="#62519D"/>
</linearGradient>
<linearGradient id="paint7_linear" x1="464.793" y1="164.293" x2="1113.36" y2="1000.15" gradientUnits="userSpaceOnUse">
<stop stop-color="#E73C8E"/>
<stop offset="0.1105" stop-color="#E33D8E"/>
<stop offset="0.2696" stop-color="#D84290"/>
<stop offset="0.4582" stop-color="#C44793"/>
<stop offset="0.6692" stop-color="#A74D97"/>
<stop offset="0.8962" stop-color="#7B509B"/>
<stop offset="1" stop-color="#62519D"/>
</linearGradient>
<linearGradient id="paint8_linear" x1="450.061" y1="175.721" x2="1098.64" y2="1011.58" gradientUnits="userSpaceOnUse">
<stop stop-color="#E73C8E"/>
<stop offset="0.1105" stop-color="#E33D8E"/>
<stop offset="0.2696" stop-color="#D84290"/>
<stop offset="0.4582" stop-color="#C44793"/>
<stop offset="0.6692" stop-color="#A74D97"/>
<stop offset="0.8962" stop-color="#7B509B"/>
<stop offset="1" stop-color="#62519D"/>
</linearGradient>
<linearGradient id="paint9_linear" x1="372.993" y1="235.52" x2="1021.59" y2="1071.38" gradientUnits="userSpaceOnUse">
<stop stop-color="#E73C8E"/>
<stop offset="0.1105" stop-color="#E33D8E"/>
<stop offset="0.2696" stop-color="#D84290"/>
<stop offset="0.4582" stop-color="#C44793"/>
<stop offset="0.6692" stop-color="#A74D97"/>
<stop offset="0.8962" stop-color="#7B509B"/>
<stop offset="1" stop-color="#62519D"/>
</linearGradient>
<linearGradient id="paint10_linear" x1="425.326" y1="194.92" x2="1073.88" y2="1030.78" gradientUnits="userSpaceOnUse">
<stop stop-color="#E73C8E"/>
<stop offset="0.1105" stop-color="#E33D8E"/>
<stop offset="0.2696" stop-color="#D84290"/>
<stop offset="0.4582" stop-color="#C44793"/>
<stop offset="0.6692" stop-color="#A74D97"/>
<stop offset="0.8962" stop-color="#7B509B"/>
<stop offset="1" stop-color="#62519D"/>
</linearGradient>
<linearGradient id="paint11_linear" x1="270.84" y1="314.786" x2="919.413" y2="1150.65" gradientUnits="userSpaceOnUse">
<stop stop-color="#E73C8E"/>
<stop offset="0.1105" stop-color="#E33D8E"/>
<stop offset="0.2696" stop-color="#D84290"/>
<stop offset="0.4582" stop-color="#C44793"/>
<stop offset="0.6692" stop-color="#A74D97"/>
<stop offset="0.8962" stop-color="#7B509B"/>
<stop offset="1" stop-color="#62519D"/>
</linearGradient>
<linearGradient id="paint12_linear" x1="242.923" y1="336.451" x2="891.47" y2="1172.31" gradientUnits="userSpaceOnUse">
<stop stop-color="#E73C8E"/>
<stop offset="0.1105" stop-color="#E33D8E"/>
<stop offset="0.2696" stop-color="#D84290"/>
<stop offset="0.4582" stop-color="#C44793"/>
<stop offset="0.6692" stop-color="#A74D97"/>
<stop offset="0.8962" stop-color="#7B509B"/>
<stop offset="1" stop-color="#62519D"/>
</linearGradient>
<linearGradient id="paint13_linear" x1="152.433" y1="406.662" x2="800.996" y2="1242.52" gradientUnits="userSpaceOnUse">
<stop stop-color="#E73C8E"/>
<stop offset="0.1105" stop-color="#E33D8E"/>
<stop offset="0.2696" stop-color="#D84290"/>
<stop offset="0.4582" stop-color="#C44793"/>
<stop offset="0.6692" stop-color="#A74D97"/>
<stop offset="0.8962" stop-color="#7B509B"/>
<stop offset="1" stop-color="#62519D"/>
</linearGradient>
<linearGradient id="paint14_linear" x1="390.497" y1="221.94" x2="1039.07" y2="1057.8" gradientUnits="userSpaceOnUse">
<stop stop-color="#E73C8E"/>
<stop offset="0.1105" stop-color="#E33D8E"/>
<stop offset="0.2696" stop-color="#D84290"/>
<stop offset="0.4582" stop-color="#C44793"/>
<stop offset="0.6692" stop-color="#A74D97"/>
<stop offset="0.8962" stop-color="#7B509B"/>
<stop offset="1" stop-color="#62519D"/>
</linearGradient>
<linearGradient id="paint15_linear" x1="960.441" y1="-106.783" x2="1609.02" y2="729.067" gradientUnits="userSpaceOnUse">
<stop stop-color="#E73C8E"/>
<stop offset="0.1105" stop-color="#E33D8E"/>
<stop offset="0.2696" stop-color="#D84290"/>
<stop offset="0.4582" stop-color="#C44793"/>
<stop offset="0.6692" stop-color="#A74D97"/>
<stop offset="0.8962" stop-color="#7B509B"/>
<stop offset="1" stop-color="#62519D"/>
</linearGradient>
<linearGradient id="paint16_linear" x1="1235.75" y1="-90.0099" x2="1884.32" y2="745.848" gradientUnits="userSpaceOnUse">
<stop stop-color="#E73C8E"/>
<stop offset="0.1105" stop-color="#E33D8E"/>
<stop offset="0.2696" stop-color="#D84290"/>
<stop offset="0.4582" stop-color="#C44793"/>
<stop offset="0.6692" stop-color="#A74D97"/>
<stop offset="0.8962" stop-color="#7B509B"/>
<stop offset="1" stop-color="#62519D"/>
</linearGradient>
<linearGradient id="paint17_linear" x1="589.291" y1="67.6923" x2="1237.86" y2="903.554" gradientUnits="userSpaceOnUse">
<stop stop-color="#E73C8E"/>
<stop offset="0.1105" stop-color="#E33D8E"/>
<stop offset="0.2696" stop-color="#D84290"/>
<stop offset="0.4582" stop-color="#C44793"/>
<stop offset="0.6692" stop-color="#A74D97"/>
<stop offset="0.8962" stop-color="#7B509B"/>
<stop offset="1" stop-color="#62519D"/>
</linearGradient>
<linearGradient id="paint18_linear" x1="582.946" y1="72.6133" x2="1231.52" y2="908.476" gradientUnits="userSpaceOnUse">
<stop stop-color="#E73C8E"/>
<stop offset="0.1105" stop-color="#E33D8E"/>
<stop offset="0.2696" stop-color="#D84290"/>
<stop offset="0.4582" stop-color="#C44793"/>
<stop offset="0.6692" stop-color="#A74D97"/>
<stop offset="0.8962" stop-color="#7B509B"/>
<stop offset="1" stop-color="#62519D"/>
</linearGradient>
<linearGradient id="paint19_linear" x1="619.08" y1="-232.921" x2="1267.65" y2="602.938" gradientUnits="userSpaceOnUse">
<stop stop-color="#E73C8E"/>
<stop offset="0.1105" stop-color="#E33D8E"/>
<stop offset="0.2696" stop-color="#D84290"/>
<stop offset="0.4582" stop-color="#C44793"/>
<stop offset="0.6692" stop-color="#A74D97"/>
<stop offset="0.8962" stop-color="#7B509B"/>
<stop offset="1" stop-color="#62519D"/>
</linearGradient>
<linearGradient id="paint20_linear" x1="742.932" y1="-51.5072" x2="1391.48" y2="784.341" gradientUnits="userSpaceOnUse">
<stop stop-color="#E73C8E"/>
<stop offset="0.1105" stop-color="#E33D8E"/>
<stop offset="0.2696" stop-color="#D84290"/>
<stop offset="0.4582" stop-color="#C44793"/>
<stop offset="0.6692" stop-color="#A74D97"/>
<stop offset="0.8962" stop-color="#7B509B"/>
<stop offset="1" stop-color="#62519D"/>
</linearGradient>
<linearGradient id="paint21_linear" x1="1175.94" y1="-95.6729" x2="1824.5" y2="740.184" gradientUnits="userSpaceOnUse">
<stop stop-color="#E73C8E"/>
<stop offset="0.1105" stop-color="#E33D8E"/>
<stop offset="0.2696" stop-color="#D84290"/>
<stop offset="0.4582" stop-color="#C44793"/>
<stop offset="0.6692" stop-color="#A74D97"/>
<stop offset="0.8962" stop-color="#7B509B"/>
<stop offset="1" stop-color="#62519D"/>
</linearGradient>
<linearGradient id="paint22_linear" x1="863.031" y1="-87.4643" x2="1511.68" y2="748.41" gradientUnits="userSpaceOnUse">
<stop stop-color="#E73C8E"/>
<stop offset="0.1105" stop-color="#E33D8E"/>
<stop offset="0.2696" stop-color="#D84290"/>
<stop offset="0.4582" stop-color="#C44793"/>
<stop offset="0.6692" stop-color="#A74D97"/>
<stop offset="0.8962" stop-color="#7B509B"/>
<stop offset="1" stop-color="#62519D"/>
</linearGradient>
<linearGradient id="paint23_linear" x1="1066.37" y1="89.2906" x2="1714.95" y2="925.155" gradientUnits="userSpaceOnUse">
<stop stop-color="#E73C8E"/>
<stop offset="0.1105" stop-color="#E33D8E"/>
<stop offset="0.2696" stop-color="#D84290"/>
<stop offset="0.4582" stop-color="#C44793"/>
<stop offset="0.6692" stop-color="#A74D97"/>
<stop offset="0.8962" stop-color="#7B509B"/>
<stop offset="1" stop-color="#62519D"/>
</linearGradient>
<linearGradient id="paint24_linear" x1="760.146" y1="-64.8627" x2="1408.71" y2="770.979" gradientUnits="userSpaceOnUse">
<stop stop-color="#E73C8E"/>
<stop offset="0.1105" stop-color="#E33D8E"/>
<stop offset="0.2696" stop-color="#D84290"/>
<stop offset="0.4582" stop-color="#C44793"/>
<stop offset="0.6692" stop-color="#A74D97"/>
<stop offset="0.8962" stop-color="#7B509B"/>
<stop offset="1" stop-color="#62519D"/>
</linearGradient>
<linearGradient id="paint25_linear" x1="592.102" y1="65.4971" x2="1240.68" y2="901.365" gradientUnits="userSpaceOnUse">
<stop stop-color="#E73C8E"/>
<stop offset="0.1105" stop-color="#E33D8E"/>
<stop offset="0.2696" stop-color="#D84290"/>
<stop offset="0.4582" stop-color="#C44793"/>
<stop offset="0.6692" stop-color="#A74D97"/>
<stop offset="0.8962" stop-color="#7B509B"/>
<stop offset="1" stop-color="#62519D"/>
</linearGradient>
<linearGradient id="paint26_linear" x1="529.986" y1="113.716" x2="1178.54" y2="949.577" gradientUnits="userSpaceOnUse">
<stop stop-color="#E73C8E"/>
<stop offset="0.1105" stop-color="#E33D8E"/>
<stop offset="0.2696" stop-color="#D84290"/>
<stop offset="0.4582" stop-color="#C44793"/>
<stop offset="0.6692" stop-color="#A74D97"/>
<stop offset="0.8962" stop-color="#7B509B"/>
<stop offset="1" stop-color="#62519D"/>
</linearGradient>
<linearGradient id="paint27_linear" x1="538.025" y1="107.503" x2="1186.56" y2="943.36" gradientUnits="userSpaceOnUse">
<stop stop-color="#E73C8E"/>
<stop offset="0.1105" stop-color="#E33D8E"/>
<stop offset="0.2696" stop-color="#D84290"/>
<stop offset="0.4582" stop-color="#C44793"/>
<stop offset="0.6692" stop-color="#A74D97"/>
<stop offset="0.8962" stop-color="#7B509B"/>
<stop offset="1" stop-color="#62519D"/>
</linearGradient>
<linearGradient id="paint28_linear" x1="435.104" y1="187.312" x2="1083.69" y2="1023.18" gradientUnits="userSpaceOnUse">
<stop stop-color="#E73C8E"/>
<stop offset="0.1105" stop-color="#E33D8E"/>
<stop offset="0.2696" stop-color="#D84290"/>
<stop offset="0.4582" stop-color="#C44793"/>
<stop offset="0.6692" stop-color="#A74D97"/>
<stop offset="0.8962" stop-color="#7B509B"/>
<stop offset="1" stop-color="#62519D"/>
</linearGradient>
<linearGradient id="paint29_linear" x1="425.489" y1="194.778" x2="1074.07" y2="1030.65" gradientUnits="userSpaceOnUse">
<stop stop-color="#E73C8E"/>
<stop offset="0.1105" stop-color="#E33D8E"/>
<stop offset="0.2696" stop-color="#D84290"/>
<stop offset="0.4582" stop-color="#C44793"/>
<stop offset="0.6692" stop-color="#A74D97"/>
<stop offset="0.8962" stop-color="#7B509B"/>
<stop offset="1" stop-color="#62519D"/>
</linearGradient>
<linearGradient id="paint30_linear" x1="395.499" y1="218.054" x2="1044.08" y2="1053.91" gradientUnits="userSpaceOnUse">
<stop stop-color="#E73C8E"/>
<stop offset="0.1105" stop-color="#E33D8E"/>
<stop offset="0.2696" stop-color="#D84290"/>
<stop offset="0.4582" stop-color="#C44793"/>
<stop offset="0.6692" stop-color="#A74D97"/>
<stop offset="0.8962" stop-color="#7B509B"/>
<stop offset="1" stop-color="#62519D"/>
</linearGradient>
<linearGradient id="paint31_linear" x1="250.851" y1="330.278" x2="899.456" y2="1166.15" gradientUnits="userSpaceOnUse">
<stop stop-color="#E73C8E"/>
<stop offset="0.1105" stop-color="#E33D8E"/>
<stop offset="0.2696" stop-color="#D84290"/>
<stop offset="0.4582" stop-color="#C44793"/>
<stop offset="0.6692" stop-color="#A74D97"/>
<stop offset="0.8962" stop-color="#7B509B"/>
<stop offset="1" stop-color="#62519D"/>
</linearGradient>
<linearGradient id="paint32_linear" x1="239.583" y1="340.184" x2="885.602" y2="1175.41" gradientUnits="userSpaceOnUse">
<stop stop-color="#E73C8E"/>
<stop offset="0.1105" stop-color="#E33D8E"/>
<stop offset="0.2696" stop-color="#D84290"/>
<stop offset="0.4582" stop-color="#C44793"/>
<stop offset="0.6692" stop-color="#A74D97"/>
<stop offset="0.8962" stop-color="#7B509B"/>
<stop offset="1" stop-color="#62519D"/>
</linearGradient>
<linearGradient id="paint33_linear" x1="563.809" y1="87.4902" x2="1212.33" y2="923.34" gradientUnits="userSpaceOnUse">
<stop stop-color="#E73C8E"/>
<stop offset="0.1105" stop-color="#E33D8E"/>
<stop offset="0.2696" stop-color="#D84290"/>
<stop offset="0.4582" stop-color="#C44793"/>
<stop offset="0.6692" stop-color="#A74D97"/>
<stop offset="0.8962" stop-color="#7B509B"/>
<stop offset="1" stop-color="#62519D"/>
</linearGradient>
<linearGradient id="paint34_linear" x1="475.424" y1="156.057" x2="1123.97" y2="991.912" gradientUnits="userSpaceOnUse">
<stop stop-color="#E73C8E"/>
<stop offset="0.1105" stop-color="#E33D8E"/>
<stop offset="0.2696" stop-color="#D84290"/>
<stop offset="0.4582" stop-color="#C44793"/>
<stop offset="0.6692" stop-color="#A74D97"/>
<stop offset="0.8962" stop-color="#7B509B"/>
<stop offset="1" stop-color="#62519D"/>
</linearGradient>
<linearGradient id="paint35_linear" x1="353.113" y1="250.945" x2="1001.69" y2="1086.81" gradientUnits="userSpaceOnUse">
<stop stop-color="#E73C8E"/>
<stop offset="0.1105" stop-color="#E33D8E"/>
<stop offset="0.2696" stop-color="#D84290"/>
<stop offset="0.4582" stop-color="#C44793"/>
<stop offset="0.6692" stop-color="#A74D97"/>
<stop offset="0.8962" stop-color="#7B509B"/>
<stop offset="1" stop-color="#62519D"/>
</linearGradient>
<linearGradient id="paint36_linear" x1="279.42" y1="308.122" x2="928.014" y2="1143.99" gradientUnits="userSpaceOnUse">
<stop stop-color="#E73C8E"/>
<stop offset="0.1105" stop-color="#E33D8E"/>
<stop offset="0.2696" stop-color="#D84290"/>
<stop offset="0.4582" stop-color="#C44793"/>
<stop offset="0.6692" stop-color="#A74D97"/>
<stop offset="0.8962" stop-color="#7B509B"/>
<stop offset="1" stop-color="#62519D"/>
</linearGradient>
<linearGradient id="paint37_linear" x1="220.887" y1="353.561" x2="869.406" y2="1189.41" gradientUnits="userSpaceOnUse">
<stop stop-color="#E73C8E"/>
<stop offset="0.1105" stop-color="#E33D8E"/>
<stop offset="0.2696" stop-color="#D84290"/>
<stop offset="0.4582" stop-color="#C44793"/>
<stop offset="0.6692" stop-color="#A74D97"/>
<stop offset="0.8962" stop-color="#7B509B"/>
<stop offset="1" stop-color="#62519D"/>
</linearGradient>
</defs>
</svg>
