<svg width="653" height="75" viewBox="0 0 653 75" fill="none" xmlns="http://www.w3.org/2000/svg">
<path d="M62.418 21.7633H42.738V71.3953H20.466V21.7633H0.786V4.19526H62.418V21.7633ZM113.939 59.6833H88.4025L83.8905 71.3953H60.8505L90.2265 4.19526H112.499L141.875 71.3953H118.451L113.939 59.6833ZM107.699 43.3633L101.171 26.4673L94.6425 43.3633H107.699ZM180.429 4.19526C186.637 4.19526 192.045 5.21926 196.653 7.26726C201.261 9.31526 204.813 12.2593 207.309 16.0993C209.805 19.9393 211.053 24.4193 211.053 29.5393C211.053 34.6593 209.805 39.1393 207.309 42.9793C204.813 46.8193 201.261 49.7633 196.653 51.8113C192.045 53.8593 186.637 54.8833 180.429 54.8833H170.733V71.3953H148.077V4.19526H180.429ZM178.989 37.4113C182.061 37.4113 184.365 36.7393 185.901 35.3953C187.437 33.9873 188.205 32.0353 188.205 29.5393C188.205 27.0433 187.437 25.1233 185.901 23.7793C184.365 22.3713 182.061 21.6673 178.989 21.6673H170.733V37.4113H178.989ZM217.921 4.19526H240.193V39.1393L263.329 4.19526H284.641V71.3953H262.369V36.5473L239.329 71.3953H217.921V4.19526ZM382.593 37.5073C382.593 46.3393 379.649 53.3473 373.761 58.5313C367.873 63.6513 359.297 66.5953 348.033 67.3633V74.8513H327.297V67.2673C315.969 66.3073 307.361 63.2993 301.473 58.2433C295.649 53.1873 292.737 46.2753 292.737 37.5073C292.737 28.7393 295.649 21.8593 301.473 16.8673C307.361 11.8113 315.969 8.80326 327.297 7.84326V0.835262H348.033V7.84326C359.361 8.67526 367.937 11.6513 373.761 16.7713C379.649 21.8273 382.593 28.7393 382.593 37.5073ZM348.033 49.6993C352.513 49.0593 355.745 47.7793 357.729 45.8593C359.713 43.8753 360.705 41.0593 360.705 37.4113C360.705 33.8273 359.681 31.0753 357.633 29.1553C355.649 27.2353 352.449 25.9553 348.033 25.3153V49.6993ZM314.625 37.5073C314.625 41.0273 315.649 43.7473 317.697 45.6673C319.809 47.5873 323.009 48.8993 327.297 49.6033V25.4113C322.753 26.0513 319.489 27.3313 317.505 29.2513C315.585 31.1073 314.625 33.8593 314.625 37.5073ZM479.003 71.3953L478.811 40.7713L464.219 65.3473H454.235L439.643 41.8273V71.3953H419.003V4.19526H437.627L459.515 40.0033L480.827 4.19526H499.451L499.643 71.3953H479.003ZM556.389 59.6833H530.853L526.341 71.3953H503.301L532.677 4.19526H554.949L584.325 71.3953H560.901L556.389 59.6833ZM550.149 43.3633L543.621 26.4673L537.093 43.3633H550.149ZM626.625 71.3953L615.009 53.4433L603.681 71.3953H577.857L602.145 37.5073L578.721 4.19526H604.161L615.585 21.0913L626.721 4.19526H651.105L627.777 36.6433L652.545 71.3953H626.625Z" fill="url(#paint0_linear)"/>
<defs>
<linearGradient id="paint0_linear" x1="147.409" y1="36.8952" x2="631.53" y2="36.8952" gradientUnits="userSpaceOnUse">
<stop stop-color="#FB338D"/>
<stop offset="1" stop-color="#FF8665"/>
</linearGradient>
</defs>
</svg>
