<svg width="50" height="50" viewBox="0 0 50 50" fill="none" xmlns="http://www.w3.org/2000/svg">
<circle cx="25" cy="24.9995" r="25" fill="#A54996"/>
<g clip-path="url(#clip0)">
<path d="M36.5368 11.9796C36.1703 11.5314 35.6215 11.2847 34.9911 11.2847C34.6485 11.2847 34.2855 11.3568 33.9124 11.4994L8.51799 21.1932C7.17034 21.7075 6.98883 22.4793 7.0005 22.8936C7.01218 23.3078 7.23717 24.0682 8.61183 24.5056C8.62007 24.5081 8.62831 24.5106 8.63655 24.5129L13.904 26.0203L16.7527 34.1662C17.1411 35.2767 18.0129 35.9666 19.0282 35.9666C19.6684 35.9666 20.2981 35.6983 20.8492 35.1911L24.1074 32.1912L28.8331 35.9964C28.8335 35.9968 28.8342 35.997 28.8347 35.9975L28.8795 36.0337C28.8837 36.0369 28.888 36.0403 28.8921 36.0435C29.4174 36.4509 29.9908 36.6661 30.5508 36.6663H30.5511C31.6454 36.6663 32.5167 35.8563 32.7705 34.6029L36.9314 14.0576C37.0985 13.2329 36.9584 12.495 36.5368 11.9796ZM15.6662 25.734L25.8288 20.5423L19.5009 27.2661C19.3972 27.3762 19.3237 27.511 19.2876 27.6577L18.0674 32.6002L15.6662 25.734ZM19.6584 33.898C19.6162 33.9366 19.5739 33.9712 19.5316 34.003L20.6636 29.4181L22.7229 31.0763L19.6584 33.898ZM35.2086 13.7085L31.0477 34.2541C31.0077 34.4507 30.8797 34.9082 30.5508 34.9082C30.3883 34.9082 30.1842 34.8197 29.9752 34.6588L24.6203 30.3471C24.6196 30.3464 24.6187 30.3457 24.6178 30.3453L21.4315 27.7795L30.5824 18.0559C30.8754 17.7446 30.9019 17.2679 30.6454 16.9259C30.3886 16.584 29.9232 16.4764 29.5426 16.6709L14.4918 24.36L9.15268 22.8324L34.5393 13.1416C34.7538 13.0596 34.9035 13.0425 34.9911 13.0425C35.0449 13.0425 35.1406 13.0489 35.1761 13.0926C35.2228 13.1496 35.2823 13.3439 35.2086 13.7085Z" fill="white"/>
</g>
<defs>
<clipPath id="clip0">
<rect x="7" y="8.99951" width="30" height="30" fill="white"/>
</clipPath>
</defs>
</svg>
