<svg width="16" height="16" viewBox="0 0 16 16" fill="none" xmlns="http://www.w3.org/2000/svg">
<g clip-path="url(#clip0)">
<path d="M1.69421 7.80312C1.69421 7.80312 2.32633 8.73178 3.65121 9.51784C3.65121 9.51784 2.69168 1.40841 8.94364 0C7.34186 5.87878 10.9811 7.53669 12.3077 4.43081C14.5231 7.38866 12.841 9.96922 12.841 9.96922C13.7495 10.1001 14.5125 9.10766 14.5125 9.10766C14.5193 9.22991 14.5231 9.353 14.5231 9.47697C14.5232 13.0795 11.6027 16 8.00011 16C4.39752 16 1.47705 13.0795 1.47705 9.47694C1.47705 8.89825 1.5528 8.33731 1.69421 7.80312Z" fill="#FF6536"/>
<path d="M14.5124 9.10766C14.5124 9.10766 13.7494 10.1001 12.841 9.96922C12.841 9.96922 14.5231 7.38866 12.3077 4.43081C10.9811 7.53669 7.34178 5.87878 8.94356 0C8.60872 0.0754375 8.29472 0.170219 8 0.281812V16C11.6026 16 14.5231 13.0795 14.5231 9.47694C14.5231 9.35297 14.5193 9.22991 14.5124 9.10766Z" fill="#FF421D"/>
<path d="M5.13916 13.139C5.13916 14.7189 6.41997 15.9997 7.99991 15.9997C9.57985 15.9997 10.8607 14.7189 10.8607 13.139C10.8607 12.2933 10.4938 11.5334 9.91041 11.0097C8.80435 12.5123 7.22816 10.2329 8.45654 8.56836C8.45654 8.56836 5.13916 8.98408 5.13916 13.139Z" fill="#FBBF00"/>
<path d="M10.8608 13.139C10.8608 12.2933 10.4938 11.5334 9.9105 11.0097C8.80444 12.5123 7.22825 10.2329 8.45662 8.56836C8.45662 8.56836 8.27637 8.59102 8 8.67823V15.9997C9.57994 15.9997 10.8608 14.7189 10.8608 13.139Z" fill="#FFA900"/>
</g>
<defs>
<clipPath id="clip0">
<rect width="16" height="16" fill="white"/>
</clipPath>
</defs>
</svg>
