<svg width="1466" height="542" viewBox="0 0 1466 542" fill="none" xmlns="http://www.w3.org/2000/svg">
<path d="M1464.87 486.52L1445.44 516.037C1443.53 518.77 1439.7 519.864 1436.96 518.224L1422.73 510.025C1419.72 508.385 1418.62 504.285 1420.26 501.279L1436.96 470.668C1438.6 467.662 1442.71 466.295 1445.72 468.208L1462.41 477.228C1465.97 479.141 1467.06 483.24 1464.87 486.52Z" fill="url(#paint0_linear)"/>
<path d="M1377.57 421.746L1405.49 437.051C1406.85 437.871 1408.5 437.051 1408.77 435.411C1412.88 416.553 1423.82 408.627 1428.47 406.987C1430.94 406.167 1433.13 407.26 1434.5 408.9C1435.86 410.267 1436.14 412.18 1435.32 413.82L1429.57 424.206C1429.02 425.299 1428.47 426.392 1428.47 427.485C1426.83 442.791 1429.3 453.45 1431.48 459.462C1432.03 460.829 1432.58 462.196 1432.85 463.015C1433.4 464.382 1433.4 465.749 1432.58 467.115L1417.8 493.899C1416.71 496.086 1413.7 496.906 1411.51 495.813H1411.23L1406.58 495.539C1404.67 495.539 1402.75 494.993 1400.83 493.899L1362.79 472.855C1362.79 472.855 1357.87 468.208 1360.06 464.109C1362.25 460.009 1365.53 460.282 1365.53 460.282C1365.53 460.282 1362.25 456.183 1363.61 451.536C1364.98 446.89 1368.81 446.344 1368.81 446.344C1368.81 446.344 1366.62 444.157 1366.9 439.784C1367.17 435.411 1372.1 433.225 1372.1 433.225C1369.64 429.945 1369.64 427.485 1369.64 427.485C1370.73 419.559 1377.57 421.746 1377.57 421.746Z" fill="url(#paint1_linear)"/>
<path d="M529.455 508.929C528.907 502.097 523.16 496.63 516.592 496.084C510.298 495.537 505.098 499.09 502.635 504.283C500.172 498.817 494.425 495.264 488.13 496.084C481.836 496.904 476.636 501.823 475.815 508.383C475.541 510.842 475.815 513.029 476.636 514.942C478.004 518.768 484.299 532.707 502.635 542C502.635 542 521.518 532.161 528.36 515.489C529.181 513.849 529.729 511.389 529.455 508.929Z" fill="url(#paint2_linear)"/>
<path d="M777.846 470.55C777.298 465.63 773.193 461.53 768.267 461.257C763.615 460.984 759.783 463.444 758.141 467.27C756.499 463.17 752.12 460.71 747.468 461.257C742.815 461.804 738.984 465.63 738.437 470.276C738.163 471.916 738.437 473.829 738.984 475.196C740.079 477.929 744.458 488.315 758.141 495.148C758.141 495.148 772.098 487.768 777.025 475.743C777.846 474.103 778.119 472.463 777.846 470.55Z" fill="url(#paint3_linear)"/>
<path d="M39.5163 9.5463C38.9689 4.62675 34.8638 0.52713 29.9377 0.253822C25.2853 -0.0194872 21.4539 2.44028 19.8118 6.26661C18.1698 2.16697 13.791 -0.292796 9.13854 0.253822C4.4861 0.800439 0.654711 4.62677 0.107365 9.27302C-0.166308 10.9129 0.107356 12.826 0.654702 14.1925C1.74939 16.9256 6.12816 27.3114 19.8118 34.1441C19.8118 34.1441 33.7691 26.7648 38.6952 14.7392C39.2426 13.0993 39.5163 11.4595 39.5163 9.5463Z" fill="url(#paint4_linear)"/>
<path d="M1150.72 403.797C1150.17 396.965 1144.42 391.225 1137.58 390.679C1131.29 390.132 1125.81 393.958 1123.35 399.151C1120.89 393.685 1115.14 389.859 1108.57 390.679C1102 391.498 1096.8 396.691 1095.98 403.251C1095.71 405.711 1095.98 407.897 1096.8 410.084C1098.17 413.91 1104.47 428.122 1123.35 437.688C1123.35 437.688 1142.51 427.576 1149.62 410.63C1150.44 408.717 1150.99 406.531 1150.72 403.797Z" fill="url(#paint5_linear)"/>
<path d="M1067.36 30.8931C1067.08 27.8868 1064.62 25.7003 1061.88 25.427C1059.15 25.1537 1056.96 26.7935 1055.86 28.98C1054.77 26.7935 1052.3 25.1537 1049.57 25.427C1046.83 25.7003 1044.64 27.8868 1044.37 30.6198C1044.37 31.7131 1044.37 32.533 1044.64 33.6262C1045.19 35.2661 1047.92 41.2788 1055.86 45.3784C1055.86 45.3784 1064.07 41.0054 1066.81 33.8995C1067.36 32.8062 1067.63 31.9864 1067.36 30.8931Z" fill="url(#paint6_linear)"/>
<path d="M317.916 385.977C317.643 382.97 315.179 380.784 312.443 380.51C309.706 380.237 307.517 381.877 306.422 384.063C305.327 381.877 302.864 380.237 300.127 380.51C297.391 380.784 295.201 382.97 294.928 385.703C294.928 386.797 294.928 387.616 295.201 388.71C295.749 390.35 298.485 396.362 306.422 400.462C306.422 400.462 314.632 396.089 317.369 388.983C317.916 388.163 318.19 387.07 317.916 385.977Z" fill="url(#paint7_linear)"/>
<path d="M789.598 50.0597C789.325 47.0533 786.862 44.8668 784.125 44.5935C781.388 44.3202 779.199 45.96 778.104 48.1465C777.009 45.96 774.546 44.3202 771.81 44.5935C769.073 44.8668 766.884 47.0533 766.61 49.7864C766.61 50.8796 766.61 51.6995 766.884 52.7928C767.431 54.4326 770.168 60.4454 778.104 64.545C778.104 64.545 786.314 60.1721 789.051 53.0661C789.598 52.2462 789.872 51.1529 789.598 50.0597Z" fill="url(#paint8_linear)"/>
<path d="M1323.6 20.9287C1322.78 11.9096 1315.67 4.8036 1306.63 4.25698C1298.7 3.71037 1291.58 8.35659 1288.57 15.1893C1285.29 8.08328 1277.9 3.43708 1269.41 4.53031C1261.2 5.62353 1254.36 12.1829 1253.54 20.3821C1253.27 23.3885 1253.54 26.3949 1254.64 29.1279C1256.55 34.0475 1264.49 52.359 1288.57 64.6579C1288.57 64.6579 1313.2 51.8124 1322.23 30.2212C1323.33 27.2148 1323.88 24.2084 1323.6 20.9287Z" fill="url(#paint9_linear)"/>
<defs>
<linearGradient id="paint0_linear" x1="1306.55" y1="308.767" x2="1945.84" y2="1178.7" gradientUnits="userSpaceOnUse">
<stop stop-color="#E73C8E"/>
<stop offset="0.1105" stop-color="#E33D8E"/>
<stop offset="0.2696" stop-color="#D84290"/>
<stop offset="0.4582" stop-color="#C44793"/>
<stop offset="0.6692" stop-color="#A74D97"/>
<stop offset="0.8962" stop-color="#7B509B"/>
<stop offset="1" stop-color="#62519D"/>
</linearGradient>
<linearGradient id="paint1_linear" x1="1303.19" y1="311.237" x2="1942.48" y2="1181.17" gradientUnits="userSpaceOnUse">
<stop stop-color="#E73C8E"/>
<stop offset="0.1105" stop-color="#E33D8E"/>
<stop offset="0.2696" stop-color="#D84290"/>
<stop offset="0.4582" stop-color="#C44793"/>
<stop offset="0.6692" stop-color="#A74D97"/>
<stop offset="0.8962" stop-color="#7B509B"/>
<stop offset="1" stop-color="#62519D"/>
</linearGradient>
<linearGradient id="paint2_linear" x1="165.828" y1="53.9901" x2="805.123" y2="923.926" gradientUnits="userSpaceOnUse">
<stop stop-color="#E73C8E"/>
<stop offset="0.1105" stop-color="#E33D8E"/>
<stop offset="0.2696" stop-color="#D84290"/>
<stop offset="0.4582" stop-color="#C44793"/>
<stop offset="0.6692" stop-color="#A74D97"/>
<stop offset="0.8962" stop-color="#7B509B"/>
<stop offset="1" stop-color="#62519D"/>
</linearGradient>
<linearGradient id="paint3_linear" x1="439.121" y1="39.2429" x2="1078.42" y2="909.18" gradientUnits="userSpaceOnUse">
<stop stop-color="#E73C8E"/>
<stop offset="0.1105" stop-color="#E33D8E"/>
<stop offset="0.2696" stop-color="#D84290"/>
<stop offset="0.4582" stop-color="#C44793"/>
<stop offset="0.6692" stop-color="#A74D97"/>
<stop offset="0.8962" stop-color="#7B509B"/>
<stop offset="1" stop-color="#62519D"/>
</linearGradient>
<linearGradient id="paint4_linear" x1="-70.5271" y1="-111.279" x2="568.762" y2="758.656" gradientUnits="userSpaceOnUse">
<stop stop-color="#E73C8E"/>
<stop offset="0.1105" stop-color="#E33D8E"/>
<stop offset="0.2696" stop-color="#D84290"/>
<stop offset="0.4582" stop-color="#C44793"/>
<stop offset="0.6692" stop-color="#A74D97"/>
<stop offset="0.8962" stop-color="#7B509B"/>
<stop offset="1" stop-color="#62519D"/>
</linearGradient>
<linearGradient id="paint5_linear" x1="863.677" y1="53.6059" x2="1502.97" y2="923.543" gradientUnits="userSpaceOnUse">
<stop stop-color="#E73C8E"/>
<stop offset="0.1105" stop-color="#E33D8E"/>
<stop offset="0.2696" stop-color="#D84290"/>
<stop offset="0.4582" stop-color="#C44793"/>
<stop offset="0.6692" stop-color="#A74D97"/>
<stop offset="0.8962" stop-color="#7B509B"/>
<stop offset="1" stop-color="#62519D"/>
</linearGradient>
<linearGradient id="paint6_linear" x1="694.129" y1="-459.245" x2="1333.41" y2="410.689" gradientUnits="userSpaceOnUse">
<stop stop-color="#E73C8E"/>
<stop offset="0.1105" stop-color="#E33D8E"/>
<stop offset="0.2696" stop-color="#D84290"/>
<stop offset="0.4582" stop-color="#C44793"/>
<stop offset="0.6692" stop-color="#A74D97"/>
<stop offset="0.8962" stop-color="#7B509B"/>
<stop offset="1" stop-color="#62519D"/>
</linearGradient>
<linearGradient id="paint7_linear" x1="88.657" y1="91.4715" x2="727.961" y2="961.41" gradientUnits="userSpaceOnUse">
<stop stop-color="#E73C8E"/>
<stop offset="0.1105" stop-color="#E33D8E"/>
<stop offset="0.2696" stop-color="#D84290"/>
<stop offset="0.4582" stop-color="#C44793"/>
<stop offset="0.6692" stop-color="#A74D97"/>
<stop offset="0.8962" stop-color="#7B509B"/>
<stop offset="1" stop-color="#62519D"/>
</linearGradient>
<linearGradient id="paint8_linear" x1="438.165" y1="-410.418" x2="1077.45" y2="459.518" gradientUnits="userSpaceOnUse">
<stop stop-color="#E73C8E"/>
<stop offset="0.1105" stop-color="#E33D8E"/>
<stop offset="0.2696" stop-color="#D84290"/>
<stop offset="0.4582" stop-color="#C44793"/>
<stop offset="0.6692" stop-color="#A74D97"/>
<stop offset="0.8962" stop-color="#7B509B"/>
<stop offset="1" stop-color="#62519D"/>
</linearGradient>
<linearGradient id="paint9_linear" x1="998.989" y1="-369.08" x2="1638.27" y2="500.853" gradientUnits="userSpaceOnUse">
<stop stop-color="#E73C8E"/>
<stop offset="0.1105" stop-color="#E33D8E"/>
<stop offset="0.2696" stop-color="#D84290"/>
<stop offset="0.4582" stop-color="#C44793"/>
<stop offset="0.6692" stop-color="#A74D97"/>
<stop offset="0.8962" stop-color="#7B509B"/>
<stop offset="1" stop-color="#62519D"/>
</linearGradient>
</defs>
</svg>
