<svg width="118" height="53" viewBox="0 0 118 53" fill="none" xmlns="http://www.w3.org/2000/svg">
<path d="M100.368 53H17.6322C12.9558 53 8.47102 51.1387 5.16435 47.8256C1.85767 44.5124 0 40.0188 0 35.3333L0 17.6667C0 12.9812 1.85767 8.48759 5.16435 5.17445C8.47102 1.8613 12.9558 0 17.6322 0L100.368 0C105.044 0 109.529 1.8613 112.836 5.17445C116.142 8.48759 118 12.9812 118 17.6667V35.3333C118 40.0188 116.142 44.5124 112.836 47.8256C109.529 51.1387 105.044 53 100.368 53ZM17.6322 4.07692C14.035 4.07692 10.5851 5.5087 8.04154 8.05727C5.49794 10.6058 4.06897 14.0624 4.06897 17.6667V35.3333C4.06897 38.9376 5.49794 42.3942 8.04154 44.9427C10.5851 47.4913 14.035 48.9231 17.6322 48.9231H100.368C103.965 48.9231 107.415 47.4913 109.958 44.9427C112.502 42.3942 113.931 38.9376 113.931 35.3333V17.6667C113.931 14.0624 112.502 10.6058 109.958 8.05727C107.415 5.5087 103.965 4.07692 100.368 4.07692H17.6322Z" fill="white"/>
<path d="M22.7998 42.3592V18.7674H13.4818V11.2115H40.6897V18.7674H31.426V42.3592H22.7998Z" fill="white"/>
<path d="M80.023 42.3592V11.2115H93.3556C96.7653 11.0146 100.133 12.0461 102.85 14.1197C104.017 15.1194 104.938 16.3749 105.543 17.7889C106.147 19.203 106.419 20.7375 106.336 22.2736C106.417 23.847 106.125 25.4172 105.483 26.8558C104.842 28.2943 103.87 29.5602 102.646 30.5497C99.8515 32.6152 96.4312 33.6519 92.9623 33.4851H88.5949V42.3864L80.023 42.3592ZM88.6492 26.6903H92.7181C94.006 26.757 95.2754 26.3619 96.2988 25.5759C96.7393 25.2098 97.0905 24.7476 97.3256 24.2248C97.5606 23.7019 97.6734 23.1321 97.6552 22.559C97.685 21.9783 97.5777 21.3988 97.3421 20.8676C97.1064 20.3363 96.749 19.8682 96.2988 19.5013C95.2308 18.7489 93.9403 18.3801 92.6368 18.4549H88.5678L88.6492 26.6903Z" fill="white"/>
<path d="M71.2069 37.8746C69.6373 39.4213 67.7725 40.6349 65.724 41.4428C63.6755 42.2507 61.4855 42.6363 59.2848 42.5767C57.1035 42.6307 54.9336 42.2446 52.9041 41.4415C50.8747 40.6384 49.0271 39.4347 47.4713 37.9018C45.9292 36.4266 44.7098 34.6466 43.8903 32.6746C43.0708 30.7025 42.6691 28.5814 42.7106 26.4456C42.6601 24.3026 43.0575 22.1727 43.8774 20.1927C44.6973 18.2127 45.9214 16.4265 47.4713 14.9487C49.0408 13.4021 50.9056 12.1885 52.9541 11.3805C55.0026 10.5726 57.1927 10.187 59.3933 10.2467C61.5834 10.1907 63.7621 10.5783 65.7991 11.3863C67.836 12.1943 69.6892 13.4059 71.2476 14.9487C72.7836 16.4343 73.995 18.2232 74.8051 20.2022C75.6153 22.1813 76.0065 24.3073 75.954 26.4456C75.9968 28.5763 75.5968 30.6926 74.7796 32.6602C73.9624 34.6277 72.7457 36.4034 71.2069 37.8746Z" fill="white"/>
<path d="M68.7519 24.081C68.652 22.9638 68.185 21.9113 67.424 21.0884C66.6631 20.2656 65.6513 19.7189 64.547 19.534C63.4428 19.349 62.3085 19.5364 61.3219 20.0665C60.3353 20.5967 59.5521 21.4399 59.0949 22.4639C58.6489 21.445 57.8807 20.6014 56.9088 20.0633C55.9369 19.5252 54.8153 19.3225 53.717 19.4863C52.6187 19.6501 51.6047 20.1715 50.8314 20.9699C50.0581 21.7683 49.5684 22.7995 49.4379 23.9044C49.3423 24.723 49.4446 25.5527 49.7363 26.3233C51.5222 30.6477 54.8616 34.1439 59.0949 36.1215C59.0949 36.1215 65.8765 32.5474 68.345 26.6087C68.6931 25.8146 68.8332 24.9446 68.7519 24.081Z" fill="#6947A1"/>
</svg>
