<svg width="317" height="75" viewBox="0 0 317 75" fill="none" xmlns="http://www.w3.org/2000/svg">
<rect x="2.5" y="2.5" width="312" height="70" rx="35" fill="white" stroke="url(#paint0_linear)" stroke-width="5"/>
<path d="M38.4798 31.422H31.5098V49H23.6218V31.422H16.6518V25.2H38.4798V31.422ZM58.2567 44.852H49.2127L47.6147 49H39.4547L49.8587 25.2H57.7467L68.1507 49H59.8547L58.2567 44.852ZM56.0467 39.072L53.7347 33.088L51.4227 39.072H56.0467ZM83.3354 25.2C85.534 25.2 87.4494 25.5627 89.0814 26.288C90.7134 27.0133 91.9714 28.056 92.8554 29.416C93.7394 30.776 94.1814 32.3627 94.1814 34.176C94.1814 35.9893 93.7394 37.576 92.8554 38.936C91.9714 40.296 90.7134 41.3387 89.0814 42.064C87.4494 42.7893 85.534 43.152 83.3354 43.152H79.9014V49H71.8774V25.2H83.3354ZM82.8254 36.964C83.9134 36.964 84.7294 36.726 85.2734 36.25C85.8174 35.7513 86.0894 35.06 86.0894 34.176C86.0894 33.292 85.8174 32.612 85.2734 32.136C84.7294 31.6373 83.9134 31.388 82.8254 31.388H79.9014V36.964H82.8254ZM98.1437 25.2H106.032V37.576L114.226 25.2H121.774V49H113.886V36.658L105.726 49H98.1437V25.2ZM157.995 36.998C157.995 40.126 156.952 42.608 154.867 44.444C152.782 46.2573 149.744 47.3 145.755 47.572V50.224H138.411V47.538C134.399 47.198 131.35 46.1327 129.265 44.342C127.202 42.5513 126.171 40.1033 126.171 36.998C126.171 33.8927 127.202 31.456 129.265 29.688C131.35 27.8973 134.399 26.832 138.411 26.492V24.01H145.755V26.492C149.767 26.7867 152.804 27.8407 154.867 29.654C156.952 31.4447 157.995 33.8927 157.995 36.998ZM145.755 41.316C147.342 41.0893 148.486 40.636 149.189 39.956C149.892 39.2533 150.243 38.256 150.243 36.964C150.243 35.6947 149.88 34.72 149.155 34.04C148.452 33.36 147.319 32.9067 145.755 32.68V41.316ZM133.923 36.998C133.923 38.2447 134.286 39.208 135.011 39.888C135.759 40.568 136.892 41.0327 138.411 41.282V32.714C136.802 32.9407 135.646 33.394 134.943 34.074C134.263 34.7313 133.923 35.706 133.923 36.998ZM175.215 32.51C178.184 32.51 180.474 33.1787 182.083 34.516C183.692 35.8307 184.497 37.78 184.497 40.364C184.497 43.152 183.579 45.294 181.743 46.79C179.907 48.2633 177.391 49 174.195 49H162.397V25.2H170.285V32.51H175.215ZM173.651 43.39C174.467 43.39 175.136 43.1407 175.657 42.642C176.178 42.1207 176.439 41.4067 176.439 40.5C176.439 38.9133 175.51 38.12 173.651 38.12H170.285V43.39H173.651ZM186.673 25.2H194.561V49H186.673V25.2ZM233.121 49L233.053 38.154L227.885 46.858H224.349L219.181 38.528V49H211.871V25.2H218.467L226.219 37.882L233.767 25.2H240.363L240.431 49H233.121ZM262.059 44.852H253.015L251.417 49H243.257L253.661 25.2H261.549L271.953 49H263.657L262.059 44.852ZM259.849 39.072L257.537 33.088L255.225 39.072H259.849ZM288.464 49L284.35 42.642L280.338 49H271.192L279.794 36.998L271.498 25.2H280.508L284.554 31.184L288.498 25.2H297.134L288.872 36.692L297.644 49H288.464Z" fill="url(#paint1_linear)"/>
<defs>
<linearGradient id="paint0_linear" x1="40.7196" y1="44" x2="324.453" y2="47.0674" gradientUnits="userSpaceOnUse">
<stop stop-color="#FB338D"/>
<stop offset="1" stop-color="#FF6C3E"/>
</linearGradient>
<linearGradient id="paint1_linear" x1="80.3182" y1="36.5" x2="290.129" y2="36.5" gradientUnits="userSpaceOnUse">
<stop stop-color="#FB338D"/>
<stop offset="1" stop-color="#FF8665"/>
</linearGradient>
</defs>
</svg>
